<?xml version="1.0" encoding="UTF-8"?>
<!DOCTYPE svg PUBLIC "-//W3C//DTD SVG 1.1//EN" "http://www.w3.org/Graphics/SVG/1.1/DTD/svg11.dtd">
<!-- Creator: CorelDRAW -->
<svg xmlns="http://www.w3.org/2000/svg" xml:space="preserve" width="20mm" height="17mm" version="1.1" style="shape-rendering:geometricPrecision; text-rendering:geometricPrecision; image-rendering:optimizeQuality; fill-rule:evenodd; clip-rule:evenodd"
viewBox="0 0 2000 1700"
 xmlns:xlink="http://www.w3.org/1999/xlink"
 xmlns:xodm="http://www.corel.com/coreldraw/odm/2003">
 <defs>
  <style type="text/css">
   <![CDATA[
    .str0 {stroke:#FEFEFE;stroke-width:20;stroke-miterlimit:22.9256}
    .fil5 {fill:none}
    .fil2 {fill:#FEFEFE}
    .fil1 {fill:#4E5C72}
    .fil3 {fill:#6695B0}
    .fil4 {fill:#75B1D2}
    .fil0 {fill:#BA8051}
   ]]>
  </style>
    <clipPath id="id0">
     <path d="M993.04 527.51c204.41,0 370.11,165.7 370.11,370.11 0,204.41 -165.7,370.11 -370.11,370.11 -204.41,0 -370.12,-165.7 -370.12,-370.11 0,-204.41 165.71,-370.11 370.12,-370.11z"/>
    </clipPath>
 </defs>
 <g id="Layer_x0020_1">
  <metadata id="CorelCorpID_0Corel-Layer"/>
  <g id="_1964257482096">
   <rect class="fil0" x="-5.67" y="1246.87" width="1998.54" height="453.29" rx="43.75" ry="99.82"/>
   <rect class="fil1" x="-5.67" y="1147.34" width="1998.54" height="453.29" rx="43.75" ry="99.82"/>
   <path class="fil1" d="M10.65 1533.04c30.32,58.87 76,67.6 143.45,67.59l1677.88 0c60.99,0.01 109.76,-4.72 142.56,-65.83 5.47,-10.2 16.26,-50.84 18.33,-53.58 -4.09,-23.65 -1.12,-934.83 -1.12,-1007.85 0,-75.05 5.85,-115.01 -32.78,-169.59 -11.89,-16.81 -32.62,-35.23 -56.41,-44.79 -35.98,-14.47 -229.74,-1.73 -297.01,-6.54 -79.41,-5.66 -111.96,-118.59 -134.13,-166.86 -47.88,-104.23 -110.63,-82.88 -220.04,-82.88 -33.26,0 -375.45,-2.5 -399.73,1.39 -101.73,16.28 -95.07,174.04 -173.35,231.74 -26.52,19.55 -47.43,16.44 -84.76,16.5 -23.59,0.04 -80.23,2.8 -99.97,-1.25 -4.93,-103.95 -91.63,-98.52 -187.66,-98.52 -95.36,0 -182.49,-4.88 -186.68,99.5 -53.6,4.37 -80.97,32.67 -101.57,66.25 -27.09,44.18 -23.33,90.71 -23.33,147.06l0 844.27c0,56.46 -8.67,174.87 16.32,223.39z"/>
   <circle class="fil2 str0" cx="993.04" cy="897.62" r="521.05"/>
   <path class="fil3" d="M993.04 527.51c204.41,0 370.11,165.7 370.11,370.11 0,204.41 -165.7,370.11 -370.11,370.11 -204.41,0 -370.12,-165.7 -370.12,-370.11 0,-204.41 165.71,-370.11 370.12,-370.11z"/>
   <g style="clip-path:url(#id0)">
    <g>
     <circle class="fil4" cx="993.04" cy="1022.38" r="370.11"/>
    </g>
   </g>
   <path class="fil5" d="M993.04 527.51c204.41,0 370.11,165.7 370.11,370.11 0,204.41 -165.7,370.11 -370.11,370.11 -204.41,0 -370.12,-165.7 -370.12,-370.11 0,-204.41 165.71,-370.11 370.12,-370.11z"/>
  </g>
 </g>
</svg>
