<?xml version="1.0" encoding="UTF-8"?>
<!DOCTYPE svg PUBLIC "-//W3C//DTD SVG 1.1//EN" "http://www.w3.org/Graphics/SVG/1.1/DTD/svg11.dtd">
<!-- Creator: CorelDRAW -->
<svg xmlns="http://www.w3.org/2000/svg" xml:space="preserve" width="26.7mm" height="20.3mm" version="1.1" style="shape-rendering:geometricPrecision; text-rendering:geometricPrecision; image-rendering:optimizeQuality; fill-rule:evenodd; clip-rule:evenodd"
viewBox="0 0 2670 2030"
 xmlns:xlink="http://www.w3.org/1999/xlink"
 xmlns:xodm="http://www.corel.com/coreldraw/odm/2003">
 <defs>
  <style type="text/css">
   <![CDATA[
    .fil2 {fill:#DCE5E8}
    .fil1 {fill:#F0F4F6}
    .fil0 {fill:#F74437}
   ]]>
  </style>
 </defs>
 <g id="Layer_x0020_1">
  <metadata id="CorelCorpID_0Corel-Layer"/>
  <g id="_1964249173360">
   <path class="fil0" d="M335.03 2015.5l0.63 -1554.89 866.12 665.68c9.97,7.78 113.88,83.4 116.77,94.12 30.69,-2.2 48.43,-24.33 72.28,-43.18l932.45 -716.86 0.31 1555.13c122.78,0 221.66,-3.45 295.62,-120.98 42.27,-67.17 37.65,-127.52 37.65,-212.34l0 -1333.27c0,-121.24 -1.89,-220.71 -120.98,-295.66 -64.96,-40.89 -132.52,-37.65 -213.84,-37.65 -16.14,19.83 -42.27,37.65 -61.86,53.29l-931.03 734.86 -747.74 -590.31c-39.26,-30.85 -225.57,-173.64 -245.14,-197.84 -123.12,0 -223.33,3.63 -297.18,120.97 -11.39,18.12 -19.74,36.74 -26.08,57.25 -22.67,73.29 -11.57,710.42 -11.57,821.73 0,111.31 -11.1,748.44 11.57,821.73 24.77,80.08 87.36,141.53 167.29,166.02 44.37,13.59 97.51,12.2 154.73,12.2z"/>
   <path class="fil1" d="M335.03 2015.5l1985.76 0c-23.2,-32.73 -825.03,-661.52 -934.58,-746.01l-67.66 -49.08c-2.89,-10.72 -106.8,-86.34 -116.77,-94.12l-866.12 -665.68 -0.63 1554.89z"/>
   <path class="fil1" d="M2322.04 15.6l-1985.77 0c19.57,24.2 205.88,166.99 245.14,197.84l747.74 590.31 931.03 -734.86c19.59,-15.64 45.72,-33.46 61.86,-53.29z"/>
   <path class="fil2" d="M1318.55 1220.41l67.66 49.08c109.55,84.49 911.38,713.28 934.58,746.01l2.8 0 -0.31 -1555.13 -932.45 716.86c-23.85,18.85 -41.59,40.98 -72.28,43.18z"/>
  </g>
 </g>
</svg>
