<?xml version="1.0" encoding="UTF-8"?>
<!DOCTYPE svg PUBLIC "-//W3C//DTD SVG 1.1//EN" "http://www.w3.org/Graphics/SVG/1.1/DTD/svg11.dtd">
<!-- Creator: CorelDRAW -->
<svg xmlns="http://www.w3.org/2000/svg" xml:space="preserve" width="15mm" height="15mm" version="1.1" style="shape-rendering:geometricPrecision; text-rendering:geometricPrecision; image-rendering:optimizeQuality; fill-rule:evenodd; clip-rule:evenodd"
viewBox="0 0 1500 1500"
 xmlns:xlink="http://www.w3.org/1999/xlink"
 xmlns:xodm="http://www.corel.com/coreldraw/odm/2003">
 <defs>
  <style type="text/css">
   <![CDATA[
    .fil2 {fill:#BE1E2D}
    .fil0 {fill:#BE1E2D}
    .fil1 {fill:#FFFDFD}
   ]]>
  </style>
 </defs>
 <g id="Layer_x0020_1">
  <metadata id="CorelCorpID_0Corel-Layer"/>
  <g id="_2331807333088">
   <rect class="fil0" x="-7.13" y="0.53" width="1500" height="1500" rx="262.2" ry="262.2"/>
   <path class="fil1" d="M945.37 641.25l-397.5 -1.32c-1.31,1.4 -2.43,2.29 -2.81,4.95 -0.39,2.66 -2.15,3.9 -2.68,4.97 -0.7,1.42 -3.77,8.23 -4.73,10.1 -27.15,52.77 -74.58,27.44 -76.26,135.32 -1.24,79.51 0.32,160.55 0.28,240.26 -0.12,218.09 30.41,192.92 288.7,192.92 304.82,0 290.17,45.77 284.08,-433.27 -1.47,-115.71 -59.9,-94.14 -81.57,-129.25 -5.1,-8.28 -2.96,-13.29 -7.51,-24.68z"/>
   <path class="fil2" d="M753.68 1104.45c35.3,-43.51 132.92,-118.9 150.23,-170.69 33.4,-99.93 -76.81,-159.69 -152.74,-86.78 -33.37,-13.77 -60.97,-52.01 -116.88,-25.35 -108.63,51.78 -28.39,149.35 29.13,203.32l59.93 59.71c21.86,19.86 9.39,10.53 30.33,19.79z"/>
   <path class="fil1" d="M537.67 514.38c-37.8,21.27 -22.74,69.88 18.88,75.85l396.97 -4.41c30.6,-15.24 34.16,-67.81 -15.48,-76.73 -24.8,-4.46 -381.87,-5.12 -400.37,5.29z"/>
   <path class="fil1" d="M698.8 452.81c-7.53,-101.66 38.31,-112.4 82.61,-135.87l14.03 -8.91c-31.05,-84.59 -138.03,-114.15 -198.22,-33.17 -59.64,80.25 0.83,175.87 101.58,177.95z"/>
   <path class="fil1" d="M733.04 482.91l172.77 -0.13c59.97,-187.8 -223.23,-207.85 -172.77,0.13z"/>
  </g>
 </g>
</svg>
